<?xml version="1.0" encoding="UTF-8"?>
<svg id="_Слой_1" data-name="Слой 1" xmlns="http://www.w3.org/2000/svg" viewBox="0 0 425.74 152.49">
  <defs>
    <style>
      .cls-1 {
        fill: #fff;
      }
    </style>
  </defs>
  <g>
    <g>
      <path class="cls-1" d="M129.67,89.45c-18.71,0-33.93,15.22-33.93,33.93,0,9.36,3.74,18.08,10.53,24.55l1.48,1.41,6.79-7.58-1.37-1.33c-4.67-4.52-7.25-10.58-7.25-17.05,0-13.1,10.65-23.75,23.75-23.75,7.45,0,14.33,3.41,18.88,9.36l1.13,1.48,8.45-5.69-1.24-1.67c-6.48-8.69-16.4-13.67-27.22-13.67"/>
      <path class="cls-1" d="M32.57,89.45c18.71,0,33.93,15.22,33.93,33.93,0,9.36-3.74,18.08-10.53,24.55l-1.48,1.41-6.79-7.58,1.37-1.33c4.67-4.52,7.25-10.58,7.25-17.05,0-13.1-10.65-23.75-23.75-23.75-7.45,0-14.33,3.41-18.88,9.36l-1.13,1.48-8.45-5.69,1.24-1.67c6.48-8.69,16.4-13.67,27.22-13.67"/>
    </g>
    <g>
      <path class="cls-1" d="M129.67,61.97c-18.71,0-33.93-15.22-33.93-33.93,0-9.36,3.74-18.08,10.53-24.55l1.48-1.41,6.79,7.58-1.37,1.33c-4.67,4.52-7.25,10.58-7.25,17.05,0,13.1,10.65,23.75,23.75,23.75,7.45,0,14.33-3.41,18.88-9.36l1.13-1.48,8.45,5.69-1.24,1.67c-6.48,8.69-16.4,13.67-27.22,13.67"/>
      <path class="cls-1" d="M32.57,61.97c18.71,0,33.93-15.22,33.93-33.93,0-9.36-3.74-18.08-10.53-24.55l-1.48-1.41-6.79,7.58,1.37,1.33c4.67,4.52,7.25,10.58,7.25,17.05,0,13.1-10.65,23.75-23.75,23.75-7.45,0-14.33-3.41-18.88-9.36l-1.13-1.48-8.45,5.69,1.24,1.67c6.48,8.69,16.4,13.67,27.22,13.67"/>
    </g>
  </g>
  <g>
    <path class="cls-1" d="M206.43,44.19c.74-.8,1.62-1.41,2.65-1.82,1.03-.42,2.18-.62,3.45-.62,1.61,0,3.07.37,4.36,1.12,1.29.75,2.47,1.8,3.53,3.15l7.68-6.92c-1.79-2.36-4.05-4.16-6.78-5.41-2.73-1.25-5.87-1.87-9.41-1.87-2.89,0-5.56.46-8.01,1.38-2.46.92-4.59,2.23-6.39,3.93-1.8,1.7-3.2,3.71-4.2,6.04-1,2.32-1.49,4.89-1.49,7.7s.5,5.38,1.49,7.7c1,2.32,2.4,4.34,4.2,6.04,1.8,1.7,3.93,3.01,6.39,3.93,2.46.92,5.13,1.38,8.01,1.38,3.54,0,6.67-.63,9.41-1.9,2.73-1.27,4.99-3.06,6.78-5.39l-7.68-6.92c-1.07,1.35-2.24,2.4-3.53,3.15-1.29.75-2.74,1.12-4.36,1.12-1.27,0-2.42-.21-3.45-.62s-1.92-1.02-2.65-1.82c-.74-.8-1.31-1.76-1.73-2.89-.41-1.13-.62-2.39-.62-3.77s.21-2.64.62-3.77c.41-1.13.99-2.09,1.73-2.89"/>
    <path class="cls-1" d="M263.92,37.19c-1.82-1.72-3.97-3.04-6.44-3.98-2.47-.94-5.19-1.41-8.14-1.41s-5.63.47-8.12,1.41c-2.49.94-4.65,2.26-6.47,3.98-1.82,1.72-3.24,3.73-4.25,6.04-1.01,2.31-1.52,4.85-1.52,7.62s.51,5.27,1.52,7.6c1.01,2.32,2.43,4.35,4.25,6.06,1.82,1.72,3.98,3.04,6.47,3.98,2.49.94,5.21,1.41,8.17,1.41s5.62-.47,8.09-1.41c2.47-.94,4.62-2.26,6.44-3.98,1.82-1.72,3.24-3.74,4.25-6.06,1.01-2.32,1.52-4.86,1.52-7.6s-.51-5.32-1.52-7.62c-1.01-2.31-2.43-4.32-4.25-6.04M256.81,54.68c-.41,1.13-.99,2.08-1.73,2.86-.74.78-1.6,1.38-2.58,1.8-.98.42-2.04.62-3.17.62s-2.19-.21-3.17-.62-1.84-1.01-2.58-1.8c-.74-.78-1.31-1.73-1.73-2.86-.41-1.13-.62-2.4-.62-3.83s.21-2.7.62-3.82c.41-1.13.99-2.08,1.73-2.86.74-.78,1.6-1.38,2.58-1.8.98-.42,2.04-.62,3.17-.62s2.19.21,3.17.62c.98.42,1.84,1.01,2.58,1.8.74.78,1.31,1.73,1.73,2.86.41,1.13.62,2.4.62,3.82s-.21,2.7-.62,3.83"/>
    <path class="cls-1" d="M310.15,60.56c1.72-2.72,2.58-5.96,2.58-9.71s-.86-7.03-2.58-9.73c-1.72-2.71-4.11-4.8-7.16-6.27-3.06-1.47-6.6-2.21-10.62-2.21h-17.78v36.43h17.78c4.02,0,7.56-.74,10.62-2.21,3.06-1.47,5.45-3.57,7.16-6.3M299.38,55.57c-.72,1.3-1.73,2.28-3.01,2.94-1.29.66-2.79.99-4.51.99h-5.1v-17.28h5.1c1.72,0,3.22.33,4.51.99,1.29.66,2.29,1.63,3.01,2.91.72,1.28,1.08,2.86,1.08,4.74s-.36,3.41-1.08,4.71"/>
    <polygon class="cls-1" points="347.62 59.81 329.58 59.81 329.58 55.02 344.84 55.02 344.84 46.17 329.58 46.17 329.58 41.9 346.95 41.9 346.95 32.64 317.63 32.64 317.63 69.07 347.62 69.07 347.62 59.81"/>
    <polygon class="cls-1" points="363.08 69.07 369.16 59.33 375.4 69.07 389.32 69.07 376.01 50.25 388.54 32.64 375.45 32.64 369.48 41.8 363.34 32.64 349.68 32.64 362.26 50.68 349.22 69.07 363.08 69.07"/>
    <polygon class="cls-1" points="204.05 108.06 219.31 108.06 219.31 99.21 204.05 99.21 204.05 94.95 221.42 94.95 221.42 85.68 192.1 85.68 192.1 122.11 222.09 122.11 222.09 112.85 204.05 112.85 204.05 108.06"/>
    <polygon class="cls-1" points="252.12 102.25 238.41 85.68 228.41 85.68 228.41 122.11 240.26 122.11 240.26 105.55 253.97 122.11 263.97 122.11 263.97 85.68 252.12 85.68 252.12 102.25"/>
    <polygon class="cls-1" points="282.27 108.06 297.52 108.06 297.52 99.21 282.27 99.21 282.27 94.95 299.64 94.95 299.64 85.68 270.31 85.68 270.31 122.11 300.31 122.11 300.31 112.85 282.27 112.85 282.27 108.06"/>
    <path class="cls-1" d="M337.26,106.68c1.34-2.03,2.01-4.45,2.01-7.26,0-4.23-1.44-7.58-4.33-10.04-2.89-2.46-7.1-3.69-12.63-3.69h-16.85v36.43h12.16v-9.16h3.31l6.12,9.16h12.99l-7.57-11.2c2.02-1.04,3.62-2.45,4.79-4.23M325.79,96.3c.81.76,1.21,1.8,1.21,3.12s-.4,2.36-1.21,3.12c-.81.76-2.05,1.14-3.74,1.14h-4.43v-8.53h4.43c1.68,0,2.93.38,3.74,1.15"/>
    <path class="cls-1" d="M357.52,97.24c.76-.8,1.68-1.41,2.76-1.82,1.08-.42,2.29-.62,3.63-.62,1.61,0,3.08.34,4.41,1.01,1.32.68,2.55,1.67,3.69,2.99l7.78-6.92c-1.82-2.25-4.13-3.99-6.93-5.2-2.8-1.21-5.99-1.82-9.56-1.82-2.99,0-5.73.46-8.22,1.38-2.49.92-4.65,2.23-6.47,3.93-1.82,1.7-3.23,3.71-4.23,6.04-1,2.32-1.49,4.89-1.49,7.7s.5,5.38,1.49,7.7c1,2.32,2.4,4.34,4.2,6.04,1.8,1.7,3.93,3.01,6.39,3.93,2.46.92,5.15,1.38,8.07,1.38,2.65,0,5.38-.4,8.19-1.2,2.82-.8,5.33-1.94,7.53-3.43v-15.4h-10.57v9.23c-.14.06-.28.11-.41.16-1.31.47-2.65.7-4.02.7s-2.48-.22-3.53-.65c-1.05-.43-1.95-1.05-2.71-1.85-.76-.8-1.34-1.76-1.75-2.89-.41-1.13-.62-2.37-.62-3.72,0-1.42.21-2.69.62-3.8.41-1.11,1-2.06,1.75-2.86"/>
    <polygon class="cls-1" points="419.47 85.68 407.72 85.68 400.29 98.3 392.92 85.68 380.09 85.68 393.7 108.76 393.7 122.11 405.86 122.11 405.86 108.9 419.47 85.68"/>
  </g>
  <path class="cls-1" d="M149.08,70.48h-20.17c-23.51,0-42.56-19.05-42.56-42.56V7.76c0-1.19-.96-2.15-2.15-2.15h-6.16c-1.19,0-2.15.96-2.15,2.15v20.17c0,23.51-19.05,42.56-42.56,42.56H13.16c-1.19,0-2.15.96-2.15,2.15v6.16c0,1.19.96,2.15,2.15,2.15h20.17c23.51,0,42.56,19.05,42.56,42.56v20.17c0,1.19.96,2.15,2.15,2.15h6.16c1.19,0,2.15-.96,2.15-2.15v-20.17c0-23.51,19.05-42.56,42.56-42.56h20.17c1.19,0,2.15-.96,2.15-2.15v-6.16c0-1.19-.96-2.15-2.15-2.15Z"/>
</svg>